<svg width="36" height="36" viewBox="0 0 36 36" fill="none" xmlns="http://www.w3.org/2000/svg">
<mask id="mask0" mask-type="alpha" maskUnits="userSpaceOnUse" x="0" y="0" width="36" height="36">
<circle cx="18" cy="18" r="17.5" fill="#C4C4C4" stroke="black"/>
</mask>
<g mask="url(#mask0)">
<rect x="-6.21436" y="-5.81415" width="48.2143" height="48.2143" fill="#E5EEE7"/>
<path d="M13.5039 8.72875C15.5435 5.33962 20.457 5.33962 22.4966 8.72875V8.72875C23.2294 9.9463 24.4245 10.8147 25.8089 11.1353V11.1353C29.6625 12.0278 31.1808 16.7008 28.5878 19.6879V19.6879C27.6563 20.761 27.1998 22.166 27.3226 23.5817V23.5817C27.6646 27.5224 23.6896 30.4105 20.0474 28.8675V28.8675C18.7389 28.3131 17.2616 28.3131 15.9532 28.8675V28.8675C12.311 30.4105 8.33591 27.5224 8.67791 23.5817V23.5817C8.80078 22.166 8.34426 20.761 7.41273 19.6879V19.6879C4.81974 16.7008 6.3381 12.0278 10.1916 11.1353V11.1353C11.576 10.8147 12.7712 9.9463 13.5039 8.72875V8.72875Z" fill="#CEEAA2"/>
<path d="M17.9185 7.73475C21.1798 5.49654 25.651 7.53407 26.1015 11.4639V11.4639C26.2634 12.8756 26.9909 14.1614 28.1177 15.0273V15.0273C31.2542 17.4374 30.698 22.3193 27.0998 23.9622V23.9622C25.8071 24.5524 24.8091 25.6416 24.3338 26.9808V26.9808C23.0109 30.7085 18.1961 31.6882 15.5217 28.7738V28.7738C14.5609 27.7268 13.2166 27.1142 11.7961 27.076V27.076C7.84195 26.9697 5.42237 22.6933 7.36772 19.2492V19.2492C8.06659 18.0119 8.23381 16.5441 7.83114 15.1813V15.1813C6.7103 11.3879 10.0298 7.76522 13.9064 8.55107V8.55107C15.2991 8.83339 16.7468 8.53883 17.9185 7.73475V7.73475Z" fill="#B0D279"/>
<path d="M21.0166 14.3064C22.6861 14.0741 24.0027 15.7021 23.4262 17.286V17.286C23.2192 17.855 23.2517 18.4837 23.5164 19.0283V19.0283C24.2533 20.5442 23.1118 22.2994 21.4273 22.2407V22.2407C20.8221 22.2196 20.2343 22.4448 19.7981 22.8648V22.8648C18.5841 24.0341 16.562 23.4909 16.0974 21.8706V21.8706C15.9304 21.2886 15.5346 20.7991 15.0003 20.5141V20.5141C13.5132 19.7208 13.4049 17.6299 14.8023 16.6873V16.6873C15.3043 16.3486 15.6475 15.8209 15.7534 15.2247V15.2247C16.0483 13.5652 18.0035 12.8161 19.3318 13.8538V13.8538C19.8089 14.2266 20.4169 14.3899 21.0166 14.3064V14.3064Z" fill="white"/>
</g>
</svg>
