<svg width="44" height="44" viewBox="0 0 44 44" fill="none" xmlns="http://www.w3.org/2000/svg">
<circle cx="22" cy="22" r="21" fill="#9055A8" stroke="white" stroke-width="2"/>
<path fill-rule="evenodd" clip-rule="evenodd" d="M22 31C26.9706 31 31 26.9706 31 22C31 17.0294 26.9706 13 22 13C17.0294 13 13 17.0294 13 22C13 26.9706 17.0294 31 22 31ZM18.0182 22.297C17.4759 22.297 17.0364 21.8574 17.0364 21.3151C17.0364 20.7729 17.4759 20.3333 18.0182 20.3333C18.5604 20.3333 19 20.7729 19 21.3151C19 21.8574 18.5604 22.297 18.0182 22.297ZM21.3697 21.3151C21.3697 21.8574 21.8093 22.297 22.3515 22.297C22.8938 22.297 23.3333 21.8574 23.3333 21.3151C23.3333 20.7729 22.8938 20.3333 22.3515 20.3333C21.8093 20.3333 21.3697 20.7729 21.3697 21.3151ZM26.6848 22.297C26.1426 22.297 25.703 21.8574 25.703 21.3151C25.703 20.7729 26.1426 20.3333 26.6848 20.3333C27.2271 20.3333 27.6667 20.7729 27.6667 21.3151C27.6667 21.8574 27.2271 22.297 26.6848 22.297Z" fill="white"/>
</svg>
