<svg width="44" height="44" viewBox="0 0 44 44" fill="none" xmlns="http://www.w3.org/2000/svg">
<circle cx="22" cy="22" r="21" fill="#E96EC3" stroke="white" stroke-width="2"/>
<path fill-rule="evenodd" clip-rule="evenodd" d="M20.898 12.3498L30.9091 22.361L29.2828 23.9873L28.3763 23.0808L20.0981 31.359C19.5782 31.8922 18.7251 31.8922 18.1919 31.359L11.8999 25.067C11.3667 24.5471 11.3667 23.694 11.8999 23.1608L20.1781 14.8826L19.2716 13.9761L20.898 12.3498ZM30.0072 30.9902C31.3803 30.9902 32.5 29.8704 32.5 28.4974C32.5 27.1644 31.007 25.2314 30.3138 24.4316C30.1939 24.285 29.9539 24.3383 29.9006 24.5249C29.7939 24.8849 29.594 25.4447 29.1941 26.0713C29.006 26.375 28.7535 26.6247 28.5007 26.8746C28.0547 27.3156 27.608 27.7571 27.5144 28.4974C27.3545 29.8704 28.2743 30.9902 30.0072 30.9902Z" fill="white"/>
</svg>
