<svg width="44" height="44" viewBox="0 0 44 44" fill="none" xmlns="http://www.w3.org/2000/svg">
<circle cx="22" cy="22" r="21" fill="#85C56F" stroke="white" stroke-width="2"/>
<path d="M32.3516 15.0187C31.7298 13.1145 30.7635 12.5485 28.3283 14.665C25.428 17.187 20.5291 13.7842 14.8129 17.542C12.3103 19.187 10.5914 23.5717 12.3686 27.139C11.6989 27.6818 10.7507 28.5147 10.1497 29.3152C9.91006 29.6351 9.96446 30.0885 10.2676 30.3488L10.9942 30.9693C11.3349 31.2607 11.8518 31.1973 12.1121 30.832C12.4981 30.2905 13.0655 29.5276 13.6199 28.9058C18.0395 33.6169 24.7584 30.8903 27.1301 28.9667C32.6262 24.5095 33.5161 18.5834 32.3516 15.0187ZM23.7972 20.972C19.4942 21.4759 16.3685 25.2763 16.3375 25.3152C16.1833 25.5056 15.9566 25.6054 15.7287 25.6054C15.5564 25.6054 15.3828 25.5484 15.2377 25.4318C14.9022 25.1611 14.8491 24.6688 15.1199 24.3333C15.2623 24.1572 18.6652 19.9979 23.6146 19.4189C24.0421 19.3684 24.4319 19.6754 24.4825 20.1054C24.5343 20.5342 24.226 20.9228 23.7972 20.972Z" fill="white"/>
</svg>
