<svg width="44" height="44" viewBox="0 0 44 44" fill="none" xmlns="http://www.w3.org/2000/svg">
<circle cx="22" cy="22" r="21" fill="#FF8400" stroke="white" stroke-width="2"/>
<path fill-rule="evenodd" clip-rule="evenodd" d="M26.8347 12.4896C27.3348 12.7655 27.5178 13.397 27.242 13.8971L23.6255 20.4676L22.4423 18.3204L25.4273 12.8969C25.7031 12.3968 26.3347 12.2138 26.8347 12.4896ZM15.8898 21.0682C17.5267 21.0682 18.9392 21.9808 19.6945 23.3134L20.375 22.0761L21.5582 24.2234L19.8878 27.2599C19.884 27.2663 19.8795 27.2715 19.875 27.2766C19.8704 27.2818 19.8659 27.287 19.8621 27.2934C19.1635 28.7962 17.653 29.8453 15.8898 29.8453C13.4694 29.8453 11.5 27.876 11.5 25.4555C11.5 23.0376 13.4694 21.0682 15.8898 21.0682ZM13.5699 25.4555C13.5699 26.734 14.6087 27.7729 15.8872 27.7729C17.1658 27.7729 18.2046 26.734 18.2046 25.4555C18.2046 24.177 17.1658 23.1381 15.8872 23.1381C14.6087 23.1381 13.5699 24.177 13.5699 25.4555ZM24.3054 23.3134C25.0581 21.9808 26.4733 21.0682 28.1101 21.0682C30.5306 21.0682 32.4999 23.0376 32.4999 25.4581C32.4999 27.8785 30.5306 29.8479 28.1101 29.8479C26.3495 29.8479 24.8364 28.7988 24.1379 27.296C24.1349 27.2885 24.1302 27.2828 24.1252 27.2768C24.1216 27.2724 24.1179 27.2679 24.1147 27.2625L16.7579 13.8996C16.4821 13.397 16.6651 12.768 17.1652 12.4922C17.6678 12.2164 18.2968 12.3994 18.5726 12.8995L24.3054 23.3134ZM25.7927 25.4555C25.7927 26.734 26.8316 27.7729 28.1101 27.7729C29.3886 27.7729 30.4275 26.734 30.4275 25.4555C30.4275 24.177 29.3886 23.1381 28.1101 23.1381C26.8316 23.1381 25.7927 24.177 25.7927 25.4555Z" fill="white"/>
</svg>
