<svg width="44" height="44" viewBox="0 0 44 44" fill="none" xmlns="http://www.w3.org/2000/svg">
<circle cx="22" cy="22" r="21" fill="#909090" stroke="white" stroke-width="2"/>
<path fill-rule="evenodd" clip-rule="evenodd" d="M22 30.25C26.9706 30.25 31 26.2206 31 21.25C31 16.2794 26.9706 12.25 22 12.25C17.0294 12.25 13 16.2794 13 21.25C13 26.2206 17.0294 30.25 22 30.25ZM20.5363 19.4975L19.0938 19.4854C19.1302 17.8005 20.1363 16.8187 21.7848 16.8187C23.3363 16.8187 24.3302 17.5581 24.3302 18.9036C24.3302 19.8874 23.8083 20.4032 23.3146 20.8911C22.8717 21.3289 22.4514 21.7442 22.4514 22.4551H21.0454C21.0454 21.4082 21.5186 20.9152 21.9443 20.4716C22.2925 20.1089 22.609 19.7792 22.609 19.2066C22.609 18.6248 22.2332 18.3581 21.6151 18.3581C20.9484 18.3581 20.5726 18.7339 20.5363 19.4975ZM20.7908 24.4551C20.7908 23.8854 21.1908 23.4975 21.7241 23.4975C22.2696 23.4975 22.6575 23.8854 22.6575 24.4551C22.6575 25.0127 22.2696 25.4248 21.7241 25.4248C21.1908 25.4248 20.7908 25.0127 20.7908 24.4551Z" fill="white"/>
</svg>
