<svg width="14" height="14" viewBox="0 0 14 14" fill="none" xmlns="http://www.w3.org/2000/svg">
<path fill-rule="evenodd" clip-rule="evenodd" d="M7 13C10.3137 13 13 10.3137 13 7C13 3.68629 10.3137 1 7 1C3.68629 1 1 3.68629 1 7C1 10.3137 3.68629 13 7 13Z" fill="white" stroke="#767676"/>
<path d="M6.40002 3.39999H7.60002V8.19999H6.40002V3.39999Z" fill="#767676"/>
<path fill-rule="evenodd" clip-rule="evenodd" d="M7.44157 10.4098C7.29757 10.5366 7.13117 10.6 6.94237 10.6C6.74717 10.6 6.57677 10.5374 6.43117 10.4122C6.28557 10.2869 6.21277 10.1118 6.21277 9.88666C6.21277 9.68692 6.28317 9.51889 6.42397 9.38256C6.56477 9.24623 6.73757 9.17807 6.94237 9.17807C7.14397 9.17807 7.31357 9.24623 7.45117 9.38256C7.58877 9.51889 7.65757 9.68692 7.65757 9.88666C7.65757 10.1086 7.58557 10.283 7.44157 10.4098Z" fill="#767676"/>
</svg>
