<svg width="14" height="14" viewBox="0 0 14 14" fill="none" xmlns="http://www.w3.org/2000/svg">
<path fill-rule="evenodd" clip-rule="evenodd" d="M7 13C10.3137 13 13 10.3137 13 7C13 3.68629 10.3137 1 7 1C3.68629 1 1 3.68629 1 7C1 10.3137 3.68629 13 7 13Z" stroke="#4BBCCE"/>
<path d="M6.3999 3.39999H7.5999V8.19999H6.3999V3.39999Z" fill="#4BBCCE"/>
<path fill-rule="evenodd" clip-rule="evenodd" d="M7.44169 10.4098C7.29769 10.5366 7.13129 10.6 6.94249 10.6C6.74729 10.6 6.57689 10.5374 6.43129 10.4122C6.28569 10.2869 6.21289 10.1118 6.21289 9.88666C6.21289 9.68692 6.28329 9.51889 6.42409 9.38256C6.56489 9.24623 6.73769 9.17807 6.94249 9.17807C7.14409 9.17807 7.31369 9.24623 7.45129 9.38256C7.58889 9.51889 7.65769 9.68692 7.65769 9.88666C7.65769 10.1086 7.58569 10.283 7.44169 10.4098Z" fill="#4BBCCE"/>
</svg>
