<!-- Generated by IcoMoon.io -->
<svg version="1.1" xmlns="http://www.w3.org/2000/svg" width="1024" height="1024" viewBox="0 0 1024 1024">
<title></title>
<g id="icomoon-ignore">
</g>
<path d="M531.2 42.667v85.333c0 10.604-8.597 19.2-19.2 19.2s-19.2-8.596-19.2-19.2v-85.333c0-10.604 8.597-19.2 19.2-19.2s19.2 8.596 19.2 19.2zM266.491 410.899l-28.377 340.525c-25.448 7.671-43.981 31.292-43.981 59.243 0 34.167 27.699 61.867 61.867 61.867h512c34.167 0 61.867-27.699 61.867-61.867 0-27.951-18.534-51.571-43.981-59.243l-28.378-340.525c-8.201-98.406-90.466-174.099-189.21-174.099h-112.597c-98.747 0-181.009 75.693-189.21 174.099zM232.533 810.667c0-12.962 10.506-23.467 23.467-23.467h512c12.958 0 23.467 10.505 23.467 23.467s-10.509 23.467-23.467 23.467h-512c-12.96 0-23.467-10.505-23.467-23.467zM719.241 414.088l27.891 334.712h-470.266l27.893-334.712c6.542-78.504 72.167-138.888 150.943-138.888h112.597c78.775 0 144.401 60.384 150.942 138.888zM290.079 68.16c-9.484 4.742-13.329 16.275-8.587 25.759l42.667 85.333c4.742 9.485 16.275 13.329 25.76 8.587s13.329-16.275 8.587-25.76l-42.667-85.333c-4.742-9.484-16.275-13.329-25.76-8.586zM141.576 199.757l64 64c7.498 7.498 7.498 19.655 0 27.153s-19.655 7.498-27.153 0l-64-64c-7.498-7.498-7.498-19.655 0-27.153s19.655-7.498 27.153 0zM909.577 199.757c7.497 7.498 7.497 19.655 0 27.153l-64 64c-7.497 7.498-19.657 7.498-27.153 0s-7.497-19.655 0-27.153l64-64c7.497-7.498 19.657-7.498 27.153 0zM708.16 76.747l-42.667 85.333c-4.745 9.484-0.9 21.018 8.585 25.76s21.018 0.898 25.762-8.587l42.667-85.333c4.74-9.484 0.896-21.017-8.589-25.759s-21.018-0.898-25.758 8.586z"></path>
</svg>
