<svg width="54" height="6" viewBox="0 0 54 6" fill="none" xmlns="http://www.w3.org/2000/svg">
<path fill-rule="evenodd" clip-rule="evenodd" d="M53.2828 2.66274L50.7373 0.117157C50.581 -0.0390524 50.3278 -0.0390524 50.1716 0.117157C50.0154 0.273367 50.0154 0.526633 50.1716 0.682843L52.0343 2.54558H4.96814C4.77659 1.35512 3.74449 0.445801 2.5 0.445801C1.11929 0.445801 0 1.56509 0 2.9458C0 4.32651 1.11929 5.4458 2.5 5.4458C3.74464 5.4458 4.77684 4.53626 4.96821 3.34558H52.0343L50.1716 5.20833C50.0154 5.36454 50.0154 5.6178 50.1716 5.77401C50.3278 5.93022 50.581 5.93022 50.7373 5.77401L53.2828 3.22843C53.4391 3.07222 53.4391 2.81895 53.2828 2.66274ZM4 2.9458C4 2.11737 3.32843 1.4458 2.5 1.4458C1.67157 1.4458 1 2.11737 1 2.9458C1 3.77423 1.67157 4.4458 2.5 4.4458C3.32843 4.4458 4 3.77423 4 2.9458Z" fill="#3E4545"/>
</svg>
