<svg width="20" height="20" viewBox="0 0 20 20" fill="none" xmlns="http://www.w3.org/2000/svg">
<path d="M9 11.4C9 11.9523 9.44771 12.4 10 12.4C10.5523 12.4 11 11.9523 11 11.4V6C11 5.44772 10.5523 5 10 5C9.44771 5 9 5.44772 9 6V11.4Z" fill="#D0021B"/>
<path d="M10 13.8C10.5523 13.8 11 14.2477 11 14.8C11 15.3523 10.5523 15.8 10 15.8C9.44771 15.8 9 15.3523 9 14.8C9 14.2477 9.44771 13.8 10 13.8Z" fill="#D0021B"/>
<path fill-rule="evenodd" clip-rule="evenodd" d="M10 20C15.5228 20 20 15.5228 20 10C20 4.47715 15.5228 0 10 0C4.47715 0 0 4.47715 0 10C0 15.5228 4.47715 20 10 20ZM10 18.3333C5.39763 18.3333 1.66667 14.6024 1.66667 10C1.66667 5.39763 5.39763 1.66667 10 1.66667C14.6024 1.66667 18.3333 5.39763 18.3333 10C18.3333 14.6024 14.6024 18.3333 10 18.3333Z" fill="#D0021B"/>
</svg>
