<!-- Generated by IcoMoon.io -->
<svg version="1.1" xmlns="http://www.w3.org/2000/svg" width="975" height="1024" viewBox="0 0 975 1024">
<title></title>
<g id="icomoon-ignore">
</g>
<path fill="#000" d="M43.425 0h349.719c23.932 0 43.425 19.493 43.425 43.426v206.512c0 23.932-19.494 43.425-43.425 43.425h-349.719c-23.932 0-43.425-19.494-43.425-43.425v-206.512c0-23.932 19.493-43.426 43.425-43.426zM48.25 245.112h340.069v-196.862h-340.069v196.862zM43.425 397.97h349.719c23.932 0 43.425 19.493 43.425 43.425v502.576c0 23.932-19.494 43.427-43.425 43.427h-349.719c-23.932 0-43.425-19.495-43.425-43.427v-502.576c0-23.932 19.493-43.425 43.425-43.425zM48.25 939.149h340.069v-492.929h-340.069v492.929zM931.811 0h-349.53c-23.932 0-43.422 19.493-43.422 43.425v502.576c0 23.932 19.49 43.427 43.422 43.427h349.53c23.932 0 43.422-19.495 43.422-43.427v-502.576c0-23.932-19.49-43.425-43.422-43.425zM926.983 541.179h-339.875v-492.929h339.875v492.929zM582.281 694.033h349.53c23.932 0 43.422 19.495 43.422 43.427v206.512c0 23.932-19.49 43.427-43.422 43.427h-349.53c-23.932 0-43.422-19.495-43.422-43.427v-206.512c0-23.932 19.49-43.427 43.422-43.427zM587.108 939.145h339.875v-196.862h-339.875v196.862z"></path>
</svg>
