<svg width="16" height="4" viewBox="0 0 16 4" fill="none" xmlns="http://www.w3.org/2000/svg">
<path d="M2.64289 3.78566C3.62911 3.78566 4.42861 2.98617 4.42861 1.99995C4.42861 1.01372 3.62911 0.214233 2.64289 0.214233C1.65667 0.214233 0.857178 1.01372 0.857178 1.99995C0.857178 2.98617 1.65667 3.78566 2.64289 3.78566Z" fill="#677579"/>
<path d="M8.00004 3.78566C8.98626 3.78566 9.78575 2.98617 9.78575 1.99995C9.78575 1.01372 8.98626 0.214233 8.00004 0.214233C7.01381 0.214233 6.21432 1.01372 6.21432 1.99995C6.21432 2.98617 7.01381 3.78566 8.00004 3.78566Z" fill="#677579"/>
<path d="M15.1429 1.99995C15.1429 2.98617 14.3434 3.78566 13.3572 3.78566C12.371 3.78566 11.5715 2.98617 11.5715 1.99995C11.5715 1.01372 12.371 0.214233 13.3572 0.214233C14.3434 0.214233 15.1429 1.01372 15.1429 1.99995Z" fill="#677579"/>
</svg>
