<!-- Generated by IcoMoon.io -->
<svg version="1.1" xmlns="http://www.w3.org/2000/svg" width="1024" height="1024" viewBox="0 0 1024 1024">
<title></title>
<g id="icomoon-ignore">
</g>
<path d="M512 0c-282.77 0-512 229.23-512 512 0 282.774 229.23 512 512 512 282.774 0 512-229.226 512-512 0-282.77-229.226-512-512-512zM78.769 512c0-239.267 193.964-433.231 433.231-433.231s433.231 193.964 433.231 433.231c0 239.267-193.964 433.231-433.231 433.231s-433.231-193.964-433.231-433.231zM504.753 626.564c21.005 0 33.503-10.822 37.494-32.466 2.31-10.197 4.043-17.325 5.199-21.383s2.783-8.116 4.884-12.175c2.101-4.058 5.304-8.532 9.61-13.423s10.030-10.561 17.172-17.013c25.836-22.892 43.743-39.176 53.721-48.853s18.59-21.175 25.836-34.494c7.247-13.319 10.87-28.823 10.87-46.512 0-22.475-6.354-43.287-19.062-62.432s-30.72-34.286-54.036-45.42c-23.316-11.134-50.202-16.701-80.66-16.701-32.768 0-61.44 6.659-86.016 19.978s-43.27 30.124-56.084 50.415c-12.813 20.291-19.22 40.321-19.22 60.091 0 9.573 4.043 18.47 12.13 26.69s18.012 12.331 29.775 12.331c19.955 0 33.503-11.759 40.645-35.274 7.562-22.476 16.804-39.489 27.727-51.039s27.937-17.325 51.042-17.325c19.745 0 35.866 5.723 48.364 17.169s18.747 25.494 18.747 42.142c0 8.532-2.048 16.441-6.144 23.725s-9.137 13.891-15.124 19.822c-5.986 5.931-15.701 14.724-29.145 26.377-15.334 13.319-27.516 24.817-36.549 34.494s-16.279 20.916-21.74 33.714c-5.461 12.798-8.192 27.939-8.192 45.42 0 13.943 3.728 24.452 11.185 31.528s16.646 10.614 27.569 10.614zM508.219 748.308c12.393 0 23.316-4.162 32.768-12.486s14.178-19.77 14.178-34.338c0-13.111-4.516-24.14-13.548-33.089s-20.165-13.423-33.398-13.423c-13.444 0-24.786 4.474-34.028 13.423s-13.863 19.978-13.863 33.089c0 14.776 4.779 26.273 14.336 34.494s20.742 12.331 33.556 12.331z"></path>
</svg>
