<!-- Generated by IcoMoon.io -->
<svg version="1.1" xmlns="http://www.w3.org/2000/svg" width="1024" height="1024" viewBox="0 0 1024 1024">
<title></title>
<g id="icomoon-ignore">
</g>
<path d="M682.581 161.023c-1.907-42.141-34.889-75.689-75.294-75.689l-450.228 0.092c-39.934 2.010-71.726 36.813-71.726 79.452v267.58l0.105 4.207c0.981 19.563 8.779 38.114 21.972 52.041 14.136 14.916 33.309 23.296 53.3 23.296h88.324l1.99-0.119c8.488-1.041 15.076-8.653 15.076-17.89 0-9.946-7.641-18.010-17.067-18.010h-88.324l-3.266-0.137c-9.743-0.815-18.937-5.265-25.898-12.612-7.735-8.162-12.080-19.234-12.080-30.775v-267.58l0.088-2.862c1.396-22.703 19.289-40.662 41.157-40.662l449.29 0.093c21.513 1.474 38.532 20.355 38.532 43.431v94.926l0.115 2.1c0.986 8.957 8.201 15.91 16.951 15.91 9.425 0 17.067-8.063 17.067-18.010v-94.926l-0.085-3.854z"></path>
<path d="M795.729 469.333c8.252 0 14.938 9.553 14.938 21.333 0 10.94-5.769 19.959-13.197 21.188l-1.741 0.145h-311.458c-8.252 0-14.938-9.553-14.938-21.333 0-10.94 5.764-19.959 13.197-21.188l1.741-0.145h311.458z"></path>
<path d="M810.667 618.667c0-11.78-6.686-21.333-14.938-21.333l-313.199 0.145c-7.433 1.229-13.197 10.249-13.197 21.188 0 11.78 6.686 21.333 14.938 21.333l313.199-0.145c7.428-1.229 13.197-10.249 13.197-21.188z"></path>
<path d="M863.287 341.333h-446.576c-41.63 0-75.378 34.99-75.378 78.152v262.9c0 20.727 7.942 40.606 22.077 55.262l2.893 2.846c13.803 12.873 31.749 20.045 50.407 20.045h78.222v113.455c0 8.9 5.171 16.926 13.103 20.331l2.189 0.798c7.377 2.231 15.42 0.154 20.941-5.568l124.433-129.015h207.689c19.994 0 39.164-8.235 53.303-22.891 14.135-14.656 22.076-34.534 22.076-55.262v-262.9c0-43.162-33.749-78.152-75.379-78.152zM416.711 376.723h446.576c22.78 0 41.246 19.146 41.246 42.763v262.9c0 11.341-4.343 22.217-12.079 30.238-7.735 8.017-18.227 12.523-29.167 12.523h-221.824l-112.397 116.523v-116.523h-112.355c-10.939 0-21.43-4.506-29.164-12.523-7.735-8.021-12.080-18.897-12.080-30.238v-262.9c0-23.617 18.466-42.763 41.245-42.763z"></path>
</svg>
