<svg width="11" height="12" viewBox="0 0 11 12" fill="none" xmlns="http://www.w3.org/2000/svg">
<path fill-rule="evenodd" clip-rule="evenodd" d="M5.5 11.5C8.53757 11.5 11 9.03757 11 6C11 2.96243 8.53757 0.5 5.5 0.5C2.46243 0.5 0 2.96243 0 6C0 9.03757 2.46243 11.5 5.5 11.5ZM3.06667 6.18148C2.7353 6.18148 2.46667 5.91285 2.46667 5.58148C2.46667 5.25011 2.7353 4.98148 3.06667 4.98148C3.39804 4.98148 3.66667 5.25011 3.66667 5.58148C3.66667 5.91285 3.39804 6.18148 3.06667 6.18148ZM5.11481 5.58148C5.11481 5.91285 5.38344 6.18148 5.71481 6.18148C6.04618 6.18148 6.31481 5.91285 6.31481 5.58148C6.31481 5.25011 6.04618 4.98148 5.71481 4.98148C5.38344 4.98148 5.11481 5.25011 5.11481 5.58148ZM8.36296 6.18148C8.03159 6.18148 7.76296 5.91285 7.76296 5.58148C7.76296 5.25011 8.03159 4.98148 8.36296 4.98148C8.69433 4.98148 8.96296 5.25011 8.96296 5.58148C8.96296 5.91285 8.69433 6.18148 8.36296 6.18148Z" fill="#9055A8"/>
</svg>
