<svg width="12" height="13" viewBox="0 0 12 13" fill="none" xmlns="http://www.w3.org/2000/svg">
<path d="M2.54985 3.2375C2.39985 3.35 2.24985 3.5375 2.24985 3.725C2.24985 4.025 2.51235 4.2875 2.81235 4.2875C2.92485 4.2875 3.03735 4.25 3.11235 4.2125L5.17485 3.125C5.62485 2.8625 6.37485 2.8625 6.82485 3.125L8.88735 4.2125C8.96235 4.25 9.07485 4.2875 9.18735 4.2875C9.48735 4.2875 9.74985 4.025 9.74985 3.725C9.74985 3.5 9.59985 3.3125 9.41235 3.2375L7.49985 2.225C7.34985 2.15 7.19985 2.075 7.04985 2.0375V1.2125C7.04985 0.8375 6.74985 0.5 6.33735 0.5H5.62485C5.24985 0.5 4.91235 0.8 4.91235 1.2125V2.075C4.76235 2.1125 4.61235 2.1875 4.46235 2.2625L2.54985 3.2375ZM11.7374 10.7C10.0124 9.2375 8.36235 10.25 7.64985 10.7C6.93735 11.15 6.29985 11.225 6.29985 11.225H5.73735C5.17485 11.225 4.38735 10.7 4.38735 10.7C1.87485 8.975 0.299854 10.7 0.299854 10.7C0.112354 10.8125 0.0373535 11 0.0373535 11.225C0.0373535 11.525 0.262353 11.75 0.562353 11.75C0.637353 11.75 0.749853 11.7125 0.787353 11.7125C1.53735 11.075 2.17485 11.2625 2.17485 11.2625C2.88735 11.225 4.08735 12.0125 4.08735 12.0125C4.08735 12.0125 4.68735 12.5 5.99985 12.5C7.34985 12.5 7.91235 11.975 7.91235 11.975C7.91235 11.975 8.96235 11.225 9.82485 11.225C10.5749 11.225 11.2124 11.675 11.2124 11.675C11.2874 11.7125 11.3624 11.7125 11.4374 11.7125C11.7374 11.7125 11.9999 11.4875 11.9999 11.1875C11.9999 11.0375 11.9249 10.8125 11.7374 10.7ZM1.42485 7.8875L2.17485 9.05C2.84985 9.2375 3.78735 9.5375 4.72485 10.025C5.81235 10.5875 5.88735 10.7375 7.31235 9.9125C8.28735 9.35 9.33735 9.0125 10.0499 8.8625L10.6874 7.925C11.5124 6.8375 11.2874 6.35 11.0249 6.125L6.74985 3.8C6.22485 3.5375 5.73735 3.575 5.24985 3.8L0.937353 6.0875C0.524853 6.425 0.674854 6.875 1.42485 7.8875Z" fill="#2070FF"/>
</svg>
