<svg width="11" height="10" viewBox="0 0 11 10" fill="none" xmlns="http://www.w3.org/2000/svg">
<path fill-rule="evenodd" clip-rule="evenodd" d="M4.83324 0.00907898L9.98184 5.15768L9.14545 5.99407L8.67926 5.52788L4.4219 9.78524C4.15453 10.0595 3.71577 10.0595 3.44154 9.78524L0.20567 6.54938C-0.0685566 6.282 -0.0685566 5.84324 0.20567 5.56902L4.46303 1.31165L3.99685 0.845469L4.83324 0.00907898ZM9.51801 9.59557C10.2241 9.59557 10.8 9.01969 10.8 8.31356C10.8 7.62799 10.0322 6.63392 9.67569 6.22258C9.61399 6.14717 9.49058 6.17459 9.46316 6.27057C9.40832 6.45568 9.30548 6.74361 9.09981 7.06583C9.0031 7.22205 8.87321 7.35046 8.74323 7.47897C8.51383 7.70576 8.28413 7.93285 8.236 8.31356C8.15373 9.01969 8.62677 9.59557 9.51801 9.59557Z" fill="#E96EC3"/>
</svg>
