<svg width="12" height="10" viewBox="0 0 12 10" fill="none" xmlns="http://www.w3.org/2000/svg">
<path d="M11.764 1.10661C11.4367 0.104442 10.9282 -0.193483 9.64646 0.920496C8.12003 2.24786 5.54165 0.456907 2.53309 2.43466C1.21595 3.30048 0.311264 5.60821 1.24662 7.48575C0.89416 7.7714 0.395119 8.20976 0.0787868 8.63109C-0.0473369 8.79948 -0.0187034 9.03809 0.140826 9.17512L0.523288 9.50168C0.702588 9.65507 0.974606 9.62167 1.11164 9.42941C1.3148 9.14444 1.61341 8.74289 1.90519 8.41565C4.23132 10.8952 7.76756 9.46009 9.01584 8.44769C11.9085 6.10179 12.3769 2.98279 11.764 1.10661ZM7.2617 4.23994C4.99693 4.50514 3.35187 6.50539 3.33551 6.52584C3.25438 6.62606 3.13507 6.67855 3.01508 6.67855C2.92441 6.67855 2.83306 6.64856 2.7567 6.5872C2.58013 6.44471 2.55218 6.18565 2.69466 6.00908C2.76965 5.91636 4.56061 3.72726 7.16558 3.42252C7.39055 3.39593 7.59576 3.5575 7.62235 3.78385C7.64962 4.0095 7.48736 4.21403 7.2617 4.23994Z" fill="#85C56F"/>
</svg>
