<!-- Generated by IcoMoon.io -->
<svg version="1.1" xmlns="http://www.w3.org/2000/svg" width="1067" height="1024" viewBox="0 0 1067 1024">
<title></title>
<g id="icomoon-ignore">
</g>
<path d="M288.418 592.371c-92.476-92.476-92.476-242.411 0-334.887s242.411-92.476 334.886 0c92.476 92.476 92.476 242.412 0 334.887s-242.41 92.476-334.886 0zM261.265 230.331c-107.472 107.472-107.472 281.72 0 389.193 102.908 102.908 267.042 107.277 375.147 13.107l184.503 184.503c7.501 7.501 19.657 7.501 27.153 0 7.501-7.497 7.501-19.652 0-27.153l-184.503-184.499c94.17-108.109 89.801-272.243-13.107-375.151-107.473-107.472-281.72-107.472-389.193 0z"></path>
</svg>
