<!-- Generated by IcoMoon.io -->
<svg version="1.1" xmlns="http://www.w3.org/2000/svg" width="791" height="1024" viewBox="0 0 791 1024">
<title></title>
<g id="icomoon-ignore">
</g>
<path fill="#000" d="M736.051 0h-680.83c-30.414 0-55.221 24.807-55.221 55.221v874.017c0 30.417 24.807 55.222 55.221 55.222h680.83c30.413 0 55.222-24.804 55.222-55.222v-874.017c0-30.414-24.809-55.221-55.222-55.221zM277.124 42.478h237.027v80.198c0 12.234-10.026 22.259-22.258 22.259h-192.51c-12.234 0-22.259-10.025-22.259-22.259v-80.198zM748.795 929.238c0 6.968-5.776 12.744-12.744 12.744h-680.83c-6.966 0-12.743-5.776-12.743-12.744v-874.017c0-6.966 5.777-12.743 12.743-12.743h179.425v80.198c0 35.681 29.055 64.736 64.736 64.736h192.338c35.682 0 64.735-29.055 64.735-64.736v-80.198h179.428c6.963 0 12.739 5.777 12.739 12.743v874.017h0.172z"></path>
<path fill="#000" d="M638.864 280.352h-483.057c-11.724 0-21.239 9.515-21.239 21.239s9.515 21.239 21.239 21.239h483.057c11.72 0 21.239-9.515 21.239-21.239s-9.519-21.239-21.239-21.239z"></path>
<path fill="#000" d="M155.807 422.057h288.848c11.724 0 21.237-9.515 21.237-21.239s-9.513-21.239-21.237-21.239h-288.848c-11.724 0-21.239 9.515-21.239 21.239s9.515 21.239 21.239 21.239z"></path>
<path fill="#000" d="M638.864 478.808h-483.057c-11.724 0-21.239 9.514-21.239 21.239s9.515 21.239 21.239 21.239h483.057c11.72 0 21.239-9.514 21.239-21.239s-9.519-21.239-21.239-21.239z"></path>
<path fill="#000" d="M155.807 620.511h288.848c11.724 0 21.237-9.514 21.237-21.239 0-11.72-9.513-21.239-21.237-21.239h-288.848c-11.724 0-21.239 9.519-21.239 21.239 0 11.725 9.515 21.239 21.239 21.239z"></path>
<path fill="#000" d="M638.864 677.264h-483.057c-11.724 0-21.239 9.514-21.239 21.239 0 11.72 9.515 21.239 21.239 21.239h483.057c11.72 0 21.239-9.519 21.239-21.239 0-11.725-9.519-21.239-21.239-21.239z"></path>
<path fill="#000" d="M444.655 776.49h-288.848c-11.724 0-21.239 9.514-21.239 21.239s9.515 21.239 21.239 21.239h288.848c11.724 0 21.237-9.514 21.237-21.239s-9.513-21.239-21.237-21.239z"></path>
</svg>
