<svg width="12" height="10" viewBox="0 0 12 10" fill="none" xmlns="http://www.w3.org/2000/svg">
<path fill-rule="evenodd" clip-rule="evenodd" d="M8.76271 0.0772142C9.04847 0.234822 9.15305 0.595701 8.99544 0.881458L6.92886 4.63607L6.25277 3.40908L7.95847 0.309944C8.11608 0.0241869 8.47696 -0.0803941 8.76271 0.0772142ZM2.50847 4.97927C3.44381 4.97927 4.251 5.50071 4.68258 6.26223L5.07144 5.55521L5.74754 6.78219L4.79305 8.51736C4.79084 8.52104 4.78827 8.52399 4.78569 8.52693C4.78311 8.52988 4.78053 8.53282 4.77832 8.53651C4.37915 9.39525 3.51599 9.99475 2.50847 9.99475C1.12535 9.99475 0 8.8694 0 7.48628C0 6.10463 1.12535 4.97927 2.50847 4.97927ZM1.1828 7.48628C1.1828 8.21687 1.7764 8.81048 2.507 8.81048C3.23759 8.81048 3.8312 8.21687 3.8312 7.48628C3.8312 6.75568 3.23759 6.16207 2.507 6.16207C1.7764 6.16207 1.1828 6.75568 1.1828 7.48628ZM7.31738 6.26223C7.74749 5.50071 8.55615 4.97927 9.49149 4.97927C10.8746 4.97927 12 6.10463 12 7.48775C12 8.87087 10.8746 9.99622 9.49149 9.99622C8.48545 9.99622 7.62081 9.39672 7.22164 8.53798C7.21993 8.53371 7.21723 8.53043 7.21441 8.527C7.21236 8.5245 7.21024 8.52193 7.20838 8.51883L3.00452 0.882933C2.84691 0.595703 2.95149 0.236297 3.23725 0.078689C3.52448 -0.0789192 3.88388 0.025662 4.04149 0.311419L7.31738 6.26223ZM8.16729 7.48627C8.16729 8.21687 8.76089 8.81048 9.49149 8.81048C10.2221 8.81048 10.8157 8.21687 10.8157 7.48627C10.8157 6.75568 10.2221 6.16207 9.49149 6.16207C8.76089 6.16207 8.16729 6.75568 8.16729 7.48627Z" fill="#FF8400"/>
</svg>
