<svg width="11" height="12" viewBox="0 0 11 12" fill="none" xmlns="http://www.w3.org/2000/svg">
<path fill-rule="evenodd" clip-rule="evenodd" d="M5.5 11.5C8.53757 11.5 11 9.03757 11 6C11 2.96243 8.53757 0.5 5.5 0.5C2.46243 0.5 0 2.96243 0 6C0 9.03757 2.46243 11.5 5.5 11.5ZM4.6055 4.92903L3.72401 4.92162C3.74624 3.892 4.36105 3.292 5.36846 3.292C6.31661 3.292 6.92401 3.74385 6.92401 4.56607C6.92401 5.1673 6.60507 5.48252 6.30339 5.78068C6.03268 6.04822 5.77587 6.30203 5.77587 6.73644H4.91661C4.91661 6.09667 5.20579 5.7954 5.46598 5.52433C5.67876 5.30265 5.87216 5.10116 5.87216 4.75125C5.87216 4.3957 5.64253 4.23274 5.26476 4.23274C4.85735 4.23274 4.62772 4.46237 4.6055 4.92903ZM4.76105 7.95866C4.76105 7.61051 5.0055 7.37348 5.33142 7.37348C5.66475 7.37348 5.90179 7.61051 5.90179 7.95866C5.90179 8.2994 5.66475 8.55125 5.33142 8.55125C5.0055 8.55125 4.76105 8.2994 4.76105 7.95866Z" fill="#909090"/>
</svg>
