<!-- Generated by IcoMoon.io -->
<svg version="1.1" xmlns="http://www.w3.org/2000/svg" width="1024" height="1024" viewBox="0 0 1024 1024">
<title></title>
<g id="icomoon-ignore">
</g>
<path d="M980.907 195.25l1.382 32.041c0.205 5.751 5.333 142.542-47.334 308.167-31.087 97.75-76.006 185.334-133.461 260.292-72.125 94.165-164.167 168.371-273.5 220.621l-16 7.629-16-7.629c-109.374-52.25-201.375-126.455-273.541-220.621-57.458-74.959-102.375-162.542-133.459-260.292-52.666-165.625-47.542-302.416-47.291-308.167l1.375-32.083 31.917-3.25c122.667-12.625 228.083-58.375 294.958-94.542 73.25-39.625 117.625-76.833 118.083-77.208l23.958-20.208 24 20.25c0.375 0.333 44.792 37.542 118.001 77.167 66.875 36.167 172.333 81.917 294.956 94.542l31.957 3.292zM282.285 751.75c61.25 79.625 138.458 143.371 229.708 189.707 91.667-46.583 169.167-110.707 230.583-190.874 52.209-68.125 93.125-148.083 121.628-237.625 34.458-108.375 42.163-204.125 43.708-251.375-49.254-7.292-99.002-19.583-148.378-36.667-48.25-16.666-96.292-37.958-142.75-63.25-47.166-25.625-83.041-50.125-104.792-66.125-21.792 16-57.667 40.5-104.833 66.125-25.708 14-51.917 26.792-78.375 38.209-21.333 9.208-42.833 17.583-64.375 25.041-49.376 17.084-99.125 29.375-148.292 36.667 1.584 47.708 9.417 144.834 44.375 253.708 28.625 89.126 69.583 168.667 121.792 236.459zM662.535 394.917l51.792-51.791 52.5 52.5-297.333 297.334-163.625-163.626 52.5-52.5 111.125 111.125 193.041-193.042z"></path>
</svg>
