<svg width="17" height="17" viewBox="0 0 17 17" fill="none" xmlns="http://www.w3.org/2000/svg">
<path fill-rule="evenodd" clip-rule="evenodd" d="M2.6667 2.6667C0.444433 4.88897 0.444433 8.49198 2.6667 10.7143C4.88897 12.9365 8.49198 12.9365 10.7143 10.7143C12.9365 8.49198 12.9365 4.88897 10.7143 2.6667C8.49198 0.444433 4.88897 0.444433 2.6667 2.6667ZM1.9596 11.4214C-0.653198 8.80856 -0.653198 4.57239 1.9596 1.9596C4.57239 -0.653198 8.80856 -0.653198 11.4214 1.9596C13.9152 4.45342 14.0287 8.42617 11.762 11.0547L16.8091 16.1017L16.102 16.8088L11.0549 11.7618C8.42641 14.0287 4.4535 13.9153 1.9596 11.4214ZM3.43575 7.21236H9.93575V6.21236H3.43575V7.21236Z" fill="#767676"/>
</svg>
