<svg width="17" height="17" viewBox="0 0 17 17" fill="none" xmlns="http://www.w3.org/2000/svg">
<path fill-rule="evenodd" clip-rule="evenodd" d="M2.66663 2.66672C0.444356 4.88899 0.444356 8.492 2.66663 10.7143C4.88889 12.9365 8.49191 12.9365 10.7142 10.7143C12.9364 8.492 12.9364 4.88899 10.7142 2.66672C8.49191 0.444447 4.88889 0.444447 2.66663 2.66672ZM1.95952 11.4214C-0.653275 8.80858 -0.653275 4.5724 1.95952 1.95961C4.57231 -0.653184 8.80849 -0.653184 11.4213 1.95961C13.9151 4.45344 14.0287 8.42618 11.7619 11.0547L16.809 16.1017L16.1019 16.8089L11.0548 11.7618C8.42634 14.0288 4.45342 13.9153 1.95952 11.4214ZM6.22131 9.99811V7.21237H3.43567V6.21237H6.22131V3.49811H7.22131V6.21237H9.93567V7.21237H7.22131V9.99811H6.22131Z" fill="#767676"/>
</svg>
